<mxfile host="app.diagrams.net" modified="2023-04-27T06:11:16.616Z" agent="Mozilla/5.0 (Macintosh; Intel Mac OS X 10_15_7) AppleWebKit/537.36 (KHTML, like Gecko) Chrome/112.0.0.0 Safari/537.36" version="21.2.3" etag="JrJiJVs00EppO-w4dEE2" type="github">
  <diagram name="第 1 页" id="cwtY9nMZuFLJ_OCa9Lqo">
    <mxGraphModel>
      <root>
        <mxCell id="0" />
        <mxCell id="1" parent="0" />
      </root>
    </mxGraphModel>
  </diagram>
</mxfile>
